<svg width="800" height="220" viewBox="0 0 800 220" fill="none" xmlns="http://www.w3.org/2000/svg">
<path d="M276.267 88.9636C268.529 88.9636 261.537 87.2975 255.291 83.9654C249.115 80.6332 244.253 76.0603 240.704 70.2467C237.225 64.3623 235.486 57.7688 235.486 50.4664C235.486 43.164 237.225 36.606 240.704 30.7924C244.253 24.9079 249.115 20.2996 255.291 16.9674C261.537 13.6353 268.529 11.9692 276.267 11.9692C284.004 11.9692 290.96 13.6353 297.136 16.9674C303.311 20.2996 308.174 24.9079 311.723 30.7924C315.272 36.606 317.047 43.164 317.047 50.4664C317.047 57.7688 315.272 64.3623 311.723 70.2467C308.174 76.0603 303.311 80.6332 297.136 83.9654C290.96 87.2975 284.004 88.9636 276.267 88.9636ZM276.267 74.2879C280.668 74.2879 284.643 73.2953 288.192 71.3102C291.741 69.2542 294.509 66.4183 296.497 62.8025C298.555 59.1868 299.585 55.0747 299.585 50.4664C299.585 45.8581 298.555 41.746 296.497 38.1303C294.509 34.5145 291.741 31.7141 288.192 29.7289C284.643 27.6729 280.668 26.6449 276.267 26.6449C271.866 26.6449 267.89 27.6729 264.341 29.7289C260.792 31.7141 257.988 34.5145 255.93 38.1303C253.942 41.746 252.948 45.8581 252.948 50.4664C252.948 55.0747 253.942 59.1868 255.93 62.8025C257.988 66.4183 260.792 69.2542 264.341 71.3102C267.89 73.2953 271.866 74.2879 276.267 74.2879Z" fill="#0B082D"/>
<path d="M360.569 29.6226C365.893 29.6226 370.719 30.8633 375.049 33.3447C379.45 35.7552 382.893 39.1937 385.378 43.6602C387.862 48.0559 389.104 53.1959 389.104 59.0804C389.104 64.9649 387.862 70.1404 385.378 74.6069C382.893 79.0025 379.45 82.4411 375.049 84.9225C370.719 87.333 365.893 88.5382 360.569 88.5382C353.257 88.5382 347.508 86.2341 343.32 81.6257V108.319L326.709 103.939V30.4734H342.574V37.0668C346.691 32.104 352.69 29.6226 360.569 29.6226ZM357.694 74.9259C361.953 74.9259 365.431 73.508 368.129 70.6721C370.897 67.7653 372.281 63.9014 372.281 59.0804C372.281 54.2594 370.897 50.4309 368.129 47.5951C365.431 44.6883 361.953 43.2349 357.694 43.2349C353.435 43.2349 349.921 44.6883 347.153 47.5951C344.455 50.4309 343.107 54.2594 343.107 59.0804C343.107 63.9014 344.455 67.7653 347.153 70.6721C349.921 73.508 353.435 74.9259 357.694 74.9259Z" fill="#0B082D"/>
<path d="M454.207 59.2931C454.207 59.5058 454.1 60.9946 453.887 63.7596H410.552C411.332 67.3045 413.178 70.1049 416.088 72.161C418.999 74.217 422.619 75.245 426.949 75.245C429.93 75.245 432.557 74.8196 434.828 73.9688C437.171 73.0472 439.336 71.6292 441.323 69.715L450.161 79.2861C444.766 85.4542 436.887 88.5382 426.523 88.5382C420.063 88.5382 414.349 87.2975 409.38 84.8161C404.411 82.2638 400.578 78.7544 397.881 74.2879C395.184 69.8213 393.835 64.7522 393.835 59.0804C393.835 53.4795 395.148 48.4458 397.775 43.9793C400.472 39.4419 404.128 35.9325 408.742 33.451C413.426 30.8987 418.644 29.6226 424.393 29.6226C430.001 29.6226 435.077 30.8278 439.62 33.2384C444.162 35.6489 447.712 39.1228 450.267 43.6602C452.893 48.1268 454.207 53.3377 454.207 59.2931ZM424.5 42.1714C420.738 42.1714 417.579 43.2349 415.024 45.3618C412.468 47.4887 410.907 50.3955 410.339 54.0822H438.555C437.987 50.4664 436.425 47.5951 433.87 45.4681C431.314 43.2703 428.191 42.1714 424.5 42.1714Z" fill="#0B082D"/>
<path d="M497.953 29.6226C505.052 29.6226 510.766 31.7495 515.096 36.0033C519.497 40.2572 521.697 46.567 521.697 54.9329V87.6875H505.087V57.4852C505.087 52.9478 504.093 49.5802 502.106 47.3824C500.118 45.1136 497.243 43.9793 493.481 43.9793C489.293 43.9793 485.957 45.2909 483.473 47.9141C480.988 50.4664 479.746 54.2948 479.746 59.3995V87.6875H463.136V30.4734H479.001V37.1732C481.201 34.7626 483.934 32.9193 487.199 31.6432C490.464 30.2961 494.049 29.6226 497.953 29.6226Z" fill="#0B082D"/>
<path d="M298.568 151.15C302.862 152.586 306.225 155.004 308.659 158.405C311.092 161.731 312.308 165.85 312.308 170.763C312.308 177.716 309.732 183.083 304.579 186.862C299.498 190.565 292.055 192.417 282.25 192.417H243.39V113.057H280.103C289.264 113.057 296.277 114.908 301.144 118.612C306.082 122.315 308.551 127.341 308.551 133.69C308.551 137.545 307.657 140.984 305.867 144.007C304.15 147.03 301.717 149.411 298.568 151.15ZM260.673 126.888V145.594H277.956C282.25 145.594 285.507 144.801 287.725 143.214C289.944 141.626 291.053 139.283 291.053 136.184C291.053 133.086 289.944 130.78 287.725 129.269C285.507 127.682 282.25 126.888 277.956 126.888H260.673ZM280.962 178.586C285.542 178.586 288.978 177.792 291.268 176.205C293.63 174.618 294.81 172.161 294.81 168.836C294.81 162.26 290.194 158.972 280.962 158.972H260.673V178.586H280.962Z" fill="#0B082D"/>
<path d="M349.629 193.324C343.545 193.324 338.071 192.001 333.204 189.356C328.409 186.635 324.652 182.894 321.932 178.132C319.213 173.371 317.853 167.966 317.853 161.92C317.853 155.873 319.213 150.469 321.932 145.708C324.652 140.946 328.409 137.243 333.204 134.597C338.071 131.876 343.545 130.516 349.629 130.516C355.712 130.516 361.151 131.876 365.946 134.597C370.741 137.243 374.498 140.946 377.218 145.708C379.937 150.469 381.297 155.873 381.297 161.92C381.297 167.966 379.937 173.371 377.218 178.132C374.498 182.894 370.741 186.635 365.946 189.356C361.151 192.001 355.712 193.324 349.629 193.324ZM349.629 178.812C353.923 178.812 357.429 177.301 360.149 174.278C362.94 171.179 364.336 167.059 364.336 161.92C364.336 156.78 362.94 152.699 360.149 149.676C357.429 146.577 353.923 145.027 349.629 145.027C345.335 145.027 341.792 146.577 339.001 149.676C336.21 152.699 334.814 156.78 334.814 161.92C334.814 167.059 336.21 171.179 339.001 174.278C341.792 177.301 345.335 178.812 349.629 178.812Z" fill="#0B082D"/>
<path d="M417.825 193.324C411.742 193.324 406.267 192.001 401.401 189.356C396.606 186.635 392.848 182.894 390.129 178.132C387.409 173.371 386.05 167.966 386.05 161.92C386.05 155.873 387.409 150.469 390.129 145.708C392.848 140.946 396.606 137.243 401.401 134.597C406.267 131.876 411.742 130.516 417.825 130.516C423.908 130.516 429.347 131.876 434.142 134.597C438.937 137.243 442.695 140.946 445.414 145.708C448.134 150.469 449.494 155.873 449.494 161.92C449.494 167.966 448.134 173.371 445.414 178.132C442.695 182.894 438.937 186.635 434.142 189.356C429.347 192.001 423.908 193.324 417.825 193.324ZM417.825 178.812C422.119 178.812 425.626 177.301 428.346 174.278C431.137 171.179 432.532 167.059 432.532 161.92C432.532 156.78 431.137 152.699 428.346 149.676C425.626 146.577 422.119 145.027 417.825 145.027C413.531 145.027 409.989 146.577 407.198 149.676C404.406 152.699 403.011 156.78 403.011 161.92C403.011 167.059 404.406 171.179 407.198 174.278C409.989 177.301 413.531 178.812 417.825 178.812Z" fill="#0B082D"/>
<path d="M495.791 189.469C494.145 190.754 492.105 191.737 489.672 192.417C487.31 193.022 484.805 193.324 482.157 193.324C475.287 193.324 469.955 191.472 466.162 187.769C462.441 184.065 460.58 178.623 460.58 171.443V146.388H451.67V132.783H460.58V113.057L477.327 117.932V132.783H491.711V146.388H477.327V171.216C477.327 173.786 477.935 175.789 479.152 177.225C480.44 178.586 482.229 179.266 484.519 179.266C487.167 179.266 489.421 178.51 491.282 176.998L495.791 189.469Z" fill="#0B082D"/>
<path d="M529.173 193.324C523.019 193.324 517.472 192.001 512.534 189.356C507.667 186.635 503.839 182.894 501.048 178.132C498.328 173.371 496.968 167.966 496.968 161.92C496.968 155.873 498.328 150.469 501.048 145.708C503.839 140.946 507.667 137.243 512.534 134.597C517.472 131.876 523.019 130.516 529.173 130.516C535.256 130.516 540.552 131.876 545.061 134.597C549.641 137.243 552.969 141.059 555.045 146.048L542.055 153.417C539.05 147.824 534.72 145.027 529.066 145.027C524.7 145.027 521.086 146.539 518.224 149.562C515.361 152.586 513.93 156.705 513.93 161.92C513.93 167.135 515.361 171.254 518.224 174.278C521.086 177.301 524.7 178.812 529.066 178.812C534.791 178.812 539.121 176.016 542.055 170.423L555.045 177.905C552.969 182.743 549.641 186.522 545.061 189.243C540.552 191.964 535.256 193.324 529.173 193.324Z" fill="#0B082D"/>
<path d="M585.835 130.516C594.781 130.516 601.651 132.783 606.446 137.318C611.241 141.777 613.639 148.542 613.639 157.612V192.417H597.965V184.821C594.817 190.49 588.948 193.324 580.36 193.324C575.923 193.324 572.058 192.53 568.766 190.943C565.546 189.356 563.077 187.164 561.359 184.368C559.641 181.571 558.783 178.397 558.783 174.844C558.783 169.176 560.787 164.716 564.794 161.466C568.874 158.216 575.136 156.591 583.581 156.591H596.892C596.892 152.737 595.783 149.789 593.564 147.748C591.346 145.632 588.018 144.574 583.581 144.574C580.503 144.574 577.462 145.103 574.456 146.161C571.522 147.144 569.017 148.504 566.941 150.243L560.93 137.885C564.079 135.542 567.836 133.728 572.201 132.443C576.639 131.158 581.183 130.516 585.835 130.516ZM584.547 181.42C587.409 181.42 589.95 180.74 592.169 179.379C594.387 177.943 595.962 175.865 596.892 173.144V166.908H585.405C578.535 166.908 575.1 169.289 575.1 174.051C575.1 176.318 575.923 178.132 577.569 179.493C579.286 180.778 581.612 181.42 584.547 181.42Z" fill="#0B082D"/>
<path d="M700.612 130.516C707.841 130.516 713.566 132.783 717.788 137.318C722.082 141.777 724.229 148.504 724.229 157.498V192.417H707.483V160.219C707.483 155.382 706.517 151.792 704.584 149.449C702.724 147.03 700.04 145.821 696.533 145.821C692.597 145.821 689.484 147.182 687.194 149.902C684.903 152.548 683.758 156.516 683.758 161.807V192.417H667.012V160.219C667.012 150.621 663.362 145.821 656.062 145.821C652.197 145.821 649.12 147.182 646.83 149.902C644.54 152.548 643.395 156.516 643.395 161.807V192.417H626.648V131.423H642.643V138.452C644.79 135.882 647.402 133.917 650.48 132.557C653.629 131.196 657.064 130.516 660.785 130.516C664.865 130.516 668.55 131.385 671.842 133.123C675.135 134.786 677.783 137.243 679.786 140.493C682.148 137.318 685.118 134.862 688.696 133.123C692.346 131.385 696.318 130.516 700.612 130.516Z" fill="#0B082D"/>
<path d="M771.23 130.516C776.598 130.516 781.464 131.839 785.83 134.484C790.267 137.054 793.738 140.719 796.243 145.481C798.748 150.167 800 155.647 800 161.92C800 168.193 798.748 173.711 796.243 178.472C793.738 183.158 790.267 186.824 785.83 189.469C781.464 192.039 776.598 193.324 771.23 193.324C763.859 193.324 758.062 190.868 753.84 185.955V218.883L737.093 214.411V131.423H753.088V138.452C757.239 133.161 763.286 130.516 771.23 130.516ZM768.332 178.812C772.626 178.812 776.133 177.301 778.852 174.278C781.643 171.179 783.039 167.059 783.039 161.92C783.039 156.78 781.643 152.699 778.852 149.676C776.133 146.577 772.626 145.027 768.332 145.027C764.038 145.027 760.495 146.577 757.704 149.676C754.985 152.699 753.625 156.78 753.625 161.92C753.625 167.059 754.985 171.179 757.704 174.278C760.495 177.301 764.038 178.812 768.332 178.812Z" fill="#0B082D"/>
<circle cx="66.3124" cy="67.3124" r="66.3124" fill="#0BF082"/>
<path fill-rule="evenodd" clip-rule="evenodd" d="M136.878 67.4678H65.5342V128.083V137.176V197.792H136.878C156.127 197.792 171.732 182.187 171.732 162.937C171.732 149.953 164.632 138.627 154.102 132.63C164.632 126.633 171.732 115.307 171.732 102.322C171.732 83.0726 156.127 67.4678 136.878 67.4678Z" fill="#047AF3"/>
<path fill-rule="evenodd" clip-rule="evenodd" d="M132.076 67.4679C132.075 104.175 102.284 133.932 65.5351 133.932C65.5325 133.932 65.5299 133.932 65.5273 133.932V128.084V67.4679H132.076Z" fill="#0DC0CB"/>
</svg>